<?xml version="1.0" standalone="no"?>
<!DOCTYPE svg PUBLIC "-//W3C//DTD SVG 1.0//EN" "http://www.w3.org/TR/2001/REC-SVG-20010904/DTD/svg10.dtd">
<svg xmlns="http://www.w3.org/2000/svg" xmlns:xlink="http://www.w3.org/1999/xlink" id="body_1" width="24" height="18">

<g transform="matrix(0.0234375 0 0 0.0234375 0 0)">
	<g transform="matrix(32 0 0 32 128 -0)">
	</g>
    <path transform="matrix(32 0 0 32 128 -0)"  d="M22 14.355C 22 13.613 21.436 13.009 20.74 13.009L20.74 13.009L10.676 13.009C 9.98 13.009 9.415999 13.613 9.415999 14.355C 9.415999 15.096999 9.978999 15.700999 10.676 15.700999L10.676 15.700999L20.74 15.700999C 21.436 15.702 22 15.098 22 14.355z" stroke="none" fill="#B3B1B0" fill-rule="nonzero" />
	<g transform="matrix(32 0 0 32 128 -0)">
	</g>
    <path transform="matrix(32 0 0 32 128 -0)"  d="M3.482 18.187L7.795 22.548C 8.768 23.527 10.113 24 11.598 24C 13.082999 24 14.4279995 23.488 15.403 22.506L15.403 22.506L17.991 19.869C 18.501 19.355 18.483 18.504 17.952 17.969C 17.421 17.434 16.577 17.416 16.067999 17.93L16.067999 17.93L13.391998 20.537C 12.929998 21.004002 12.289998 21.199001 11.582998 21.199001C 10.8759985 21.199001 10.236999 21.004002 9.772999 20.537L9.772999 20.537L5.474999 16.174C 5.011999 15.707 4.778999 15.024 4.778999 14.311C 4.778999 13.598 5.0119987 12.9539995 5.474999 12.4869995L5.474999 12.4869995L9.759998 8.106999C 10.222999 7.6399994 10.8759985 7.4619994 11.581999 7.4619994C 12.287999 7.4619994 12.927999 7.6569996 13.390999 8.124L13.390999 8.124L16.067 10.73C 16.577 11.245 17.421 11.226999 17.952 10.691999C 18.483 10.155999 18.501 9.304999 17.991 8.790999L17.991 8.790999L15.402999 6.1549997C 14.753999 5.509 13.931999 5.0389996 13.010999 4.825L13.010999 4.825L12.976998 4.818L15.423998 2.3149998C 15.935998 1.8009999 15.917998 0.94899976 15.386998 0.4139998C 14.855998 -0.12100023 14.010998 -0.13800019 13.499998 0.3759998L13.499998 0.3759998L3.482 10.476C 2.509 11.458 2 12.813 2 14.311C 2 15.809 2.509 17.207 3.482 18.187z" stroke="none" fill="#E7A41F" fill-rule="nonzero" />
	<g transform="matrix(32 0 0 32 128 -0)">
	</g>
    <path transform="matrix(32 0 0 32 128 -0)"  d="M8.115 22.814C 7.9389997 22.717 7.783 22.595 7.641 22.453C 6.3139997 21.119999 4.981 19.793 3.6569998 18.456C 1.6679999 16.448 1.3549998 13.518999 2.8709998 11.136C 3.1059997 10.766999 3.3999999 10.441999 3.7099998 10.132C 6.9179997 6.918 10.125 3.703 13.333 0.48900032C 13.958 -0.13699967 14.831 -0.16299969 15.412001 0.42200032C 15.972001 0.9850004 15.939001 1.8770003 15.334001 2.4880004C 14.565001 3.2640004 13.795 4.038 13.025001 4.8130007C 12.984 4.935001 12.885 5.0130005 12.8 5.100001C 11.937 5.976001 11.05 6.829001 10.199 7.718001C 10.088 7.834001 9.937 7.9040008 9.827001 8.023001C 8.404 9.446001 6.9640007 10.853001 5.561001 12.295C 4.4260006 13.462 4.4640007 15.233 5.6290007 16.422C 6.9370008 17.758001 8.268001 19.072 9.59 20.396C 9.657001 20.463 9.726 20.528 9.794001 20.594C 10.262001 20.897 10.268001 21.844 9.977 22.265C 9.656 22.73 9.237 23.015 8.644 22.993C 8.445 22.987 8.281 22.907 8.115 22.814z" stroke="none" fill="#070706" fill-rule="nonzero" />
</g>
</svg>