<?xml version="1.0" standalone="no"?>
<!DOCTYPE svg PUBLIC "-//W3C//DTD SVG 1.0//EN" "http://www.w3.org/TR/2001/REC-SVG-20010904/DTD/svg10.dtd">
<svg xmlns="http://www.w3.org/2000/svg" xmlns:xlink="http://www.w3.org/1999/xlink" id="body_1" width="24" height="24">

<g transform="matrix(0.046875 0 0 0.046875 0 0)">
	<g transform="matrix(1 0 0 1 0 0)">
	</g>
    <path transform="matrix(1 0 0 1 0 0)"  d="M510.689 478.854C 510.689 496.415 496.414 510.69 478.853 510.69L478.853 510.69L33.146 510.69C 15.586 510.69 1.3099995 496.415 1.3099995 478.854L1.3099995 478.854L1.3099995 33.146C 1.3099995 15.586 15.5859995 1.3099995 33.146 1.3099995L33.146 1.3099995L478.853 1.3099995C 496.414 1.3099995 510.689 15.5859995 510.689 33.146L510.689 33.146L510.689 478.854z" stroke="none" fill="#0277B5" fill-rule="nonzero" />
	<g transform="matrix(1 0 0 1 0 0)">
	</g>
    <path transform="matrix(1 0 0 1 0 0)"  d="M131.2334 213.25557L186.11966 213.25557L186.11966 378.35248L131.2334 378.35248L131.2334 213.25557z" stroke="none" fill="#FFFFFF" fill-rule="nonzero" />
	<g transform="matrix(1.5537946 0 0 1.5537946 -140.87332 -132.64552)">
	</g>
    <path transform="matrix(1.5537946 0 0 1.5537946 -140.87332 -132.64552)"  d="M193.025 171.382C 180.939 171.382 173.043 179.328 173.043 189.742C 173.043 199.93701 180.699 208.102 192.557 208.102L192.557 208.102L192.785 208.102C 205.102 208.102 212.769 199.93701 212.769 189.742C 212.541 179.328 205.103 171.382 193.025 171.382z" stroke="none" fill="#FFFFFF" fill-rule="nonzero" />
	<g transform="matrix(1.5537946 0 0 1.5537946 -140.87332 -132.64552)">
	</g>
    <path transform="matrix(1.5537946 0 0 1.5537946 -140.87332 -132.64552)"  d="M297.138 220.118C 278.401 220.118 270.008 230.423 265.308 237.66L265.308 237.66L265.308 222.616L229.99301 222.616C 230.46101 232.583 229.99301 328.87 229.99301 328.87L229.99301 328.87L265.308 328.87L265.308 269.531C 265.308 266.355 265.536 263.17902 266.47302 260.909C 269.02203 254.566 274.83603 247.995 284.59302 247.995C 297.367 247.995 302.484 257.742 302.484 272.02L302.484 272.02L302.484 328.87L337.80103 328.87L337.80103 267.938C 337.801 235.301 320.375 220.118 297.138 220.118z" stroke="none" fill="#FFFFFF" fill-rule="nonzero" />
</g>
</svg>